<svg width="34" height="34" viewBox="0 0 34 34" fill="none" xmlns="http://www.w3.org/2000/svg">
<rect y="-0.000244141" width="34" height="34" rx="3" fill="#28A745"/>
<path d="M23.2988 14.4664C23.3337 15.1665 23.3337 15.9993 23.3337 16.9998C23.3337 19.9853 23.3337 21.4781 22.4062 22.4056C21.4787 23.3331 19.9859 23.3331 17.0003 23.3331C14.0148 23.3331 12.522 23.3331 11.5945 22.4056C10.667 21.4781 10.667 19.9853 10.667 16.9998C10.667 14.0142 10.667 12.5214 11.5945 11.5939C12.522 10.6664 14.0148 10.6664 17.0003 10.6664C17.7149 10.6664 18.344 10.6664 18.9003 10.6792" stroke="white" stroke-width="1.2" stroke-linecap="round"/>
<path d="M14.333 16.6664C14.333 16.6664 15.333 16.6664 16.6663 18.9998C16.6663 18.9998 20.0389 12.8887 23.333 11.6664" stroke="white" stroke-width="1.2" stroke-linecap="round" stroke-linejoin="round"/>
</svg>
